<?xml version="1.0" encoding="utf-8"?>
<svg version="1.1" id="Layer_1" xmlns="http://www.w3.org/2000/svg" xmlns:xlink="http://www.w3.org/1999/xlink" x="0px" y="0px"
	 width="864px" height="864px" viewBox="0 0 864 864" enable-background="new 0 0 864 864" xml:space="preserve">
<g fill="#382830">
	<path d="M572.558,739.5112c-0.1604-0.5217-0.6063-0.9211-1.2233-1.0956c-0.2865-0.0812-0.5789-0.1393-0.8722-0.198
		c-0.1672-0.0333-0.3334-0.0665-0.4996-0.1036l-21.4116-4.7784c-37.2792-8.3196-74.5584-16.6396-111.8387-24.9528
		c-0.8781-0.1956-1.761-0.3452-2.6967-0.5035c-0.4165-0.0704-0.8389-0.1418-1.2692-0.2191
		c-0.3765,0.0675-0.7578,0.1315-1.1411,0.1961c-0.881,0.1481-1.7933,0.3016-2.6762,0.5055
		c-29.4931,6.804-58.9832,13.6157-88.4743,20.428l-25.0813,5.7919c-5.326,1.2286-10.652,2.4577-15.9771,3.6956
		c-0.88,0.2048-1.4902,0.5862-1.717,1.0741c-0.1789,0.3848-0.133,0.8488,0.1359,1.3782c0.2083,0.4106,0.6698,0.7714,1.1166,1.1205
		c1.7668,1.3826,3.4839,2.7031,5.2018,4.0231l28.5906,22.0448l99.3865,76.6387c2.4738,1.9077,3.5308,1.9204,5.9391,0.0616
		c44.3066-34.1762,88.6122-68.3539,132.9169-102.533l0.3158-0.2366c0.3344-0.2479,0.6503-0.4816,0.8829-0.7588
		C572.5737,740.6029,572.7164,740.0275,572.558,739.5112z"/>
	<path d="M162.0583,317.6726c27.6832,19.6164,57.3083,40.568,96.0581,67.9344c0.9387,0.6635,1.8842,1.1743,2.8092,1.519
		c7.5182,2.7984,15.7385,5.8208,25.1331,9.2396c0.7705,0.2806,1.5997,0.4507,2.3976,0.4913
		c1.5322,0.0787,1.5322,0.0772,2.0993-1.4281c2.9881-7.9191,6.0779-16.1076,9.0651-24.1788c1.014-2.7398,0.7529-3.567-1.6417-5.2077
		l-11.004-7.5353c-16.8923-11.5687-34.3595-23.5315-51.5667-35.2567c-1.5312-1.0433-2.3301-2.289-2.6743-4.1659
		c-3.2189-17.5694-6.4759-35.132-9.7339-52.6946l-0.8233-4.4391c-0.1046-0.5666-0.2444-1.1269-0.3764-1.6554
		c-0.0352-0.1432-0.0704-0.2845-0.1046-0.4229c-1.3357-0.3583-2.4699-0.1599-3.8369,0.6581l-2.1912,1.3117
		c-5.0689,3.037-10.3098,6.1772-15.5664,9.091c-1.9497,1.081-2.5677,2.267-2.202,4.2304c0.0362,0.198,0.0616,0.3965,0.086,0.595
		l0.0499,0.3691l0.9612,6.3546c1.277,8.4423,2.555,16.884,3.8193,25.3282c0.0616,0.4063,0.0499,0.7964,0.0352,1.3366
		c-0.0088,0.2831-0.0176,0.6101-0.0176,1.0037v1.4319l-25.9975-31.2159l1.4247-0.9044c0.5652-0.3623,1.0521-0.6737,1.5498-0.967
		c4.1869-2.4694,8.3757-4.9364,12.5724-7.3901l17.9434-10.4863c10.6657-6.2319,21.3324-12.4644,31.9943-18.7032
		c0.2914-0.1701,0.5876-0.3373,0.8849-0.504c1.0599-0.5979,2.157-1.2159,3.0184-2.0103c1.8881-1.741,4.0999-2.9681,6.2383-4.1546
		c0.8057-0.4473,1.6124-0.8942,2.4005-1.3679c0.4097-0.2464,0.8223-0.4884,1.234-0.7294c2.2665-1.3288,4.4069-2.5833,6.1043-4.5433
		c1.7903-2.067,3.6765-4.1463,5.6037-6.1801c2.6645-2.8092,5.3446-5.6022,8.0257-8.3948c1.7219-1.7942,3.4428-3.5885,5.1608-5.3866
		c1.8265-1.913,3.6481-3.831,5.4698-5.7489c1.8431-1.9409,3.6872-3.8818,5.5362-5.8178c4.447-4.6562,8.9018-9.3051,13.3625-13.9482
		c3.5689-3.7156,7.1428-7.4268,10.7176-11.1375l4.3306-4.4973c0.0636-0.066,0.1398-0.131,0.2171-0.1956
		c0.0508-0.0425,0.1291-0.1076,0.1496-0.1354c-0.0049-0.0836,0.0293-0.2596,0.0636-0.4371c0.1027-0.528,0.2083-1.0741,0.0851-1.4579
		c-0.0567-0.1721-0.2043-0.6287-1.4471-0.3383c-0.4899,0.1139-0.9739,0.3965-1.3406,0.6297
		c-1.3542,0.8614-2.6997,1.7375-4.0451,2.6141l-8.0433,5.215c-3.7752,2.4445-7.5515,4.8894-11.3228,7.3398
		c-1.8588,1.2076-3.7136,2.423-5.5675,3.6379c-3.1661,2.0749-6.4397,4.2206-9.686,6.2931
		c-2.9285,1.8695-5.8736,3.7122-8.8197,5.5548c-3.1328,1.9595-6.2657,3.9195-9.377,5.9117
		c-2.8493,1.8236-5.7191,3.7224-8.494,5.5592c-1.9732,1.3058-3.9464,2.6112-5.9293,3.9024l-3.3382,2.1805
		c-4.096,2.6782-8.3318,5.4478-12.5685,8.0633c-0.8741,0.5402-1.7473,1.0878-2.6215,1.6358
		c-3.7772,2.3687-7.6835,4.8185-11.7873,6.691c-10.744,4.9041-21.7578,9.687-32.4098,14.3124
		c-3.8652,1.6784-7.7304,3.3568-11.5917,5.0444c-0.3696,0.1618-0.746,0.2464-1.145,0.3359
		c-0.177,0.0396-0.3588,0.0802-0.5466,0.1301l-0.3931,0.1046l-0.5945-1.0814c-0.2855-0.5124-0.5505-0.99-0.7949-1.4774
		c-0.7695-1.5322-1.5342-3.0663-2.2998-4.601c-1.6163-3.2433-3.2336-6.4872-4.8899-9.7109
		c-0.7236-1.4075-1.058-2.8679-1.0531-4.5946c0.0225-7.9866,0.0362-15.9737,0.0499-23.9603
		c0.0156-9.5501,0.0313-19.1001,0.0636-28.6502c0.0039-1.3122,0.1858-2.7011,0.5397-4.1272
		c2.5041-10.082,4.7765-19.1867,7.22-28.5163c0.5241-2.0015,1.3347-4.0432,2.4073-6.0682
		c2.5139-4.7467,5.1334-9.5369,7.6669-14.1692c1.1333-2.0734,2.2675-4.1473,3.3959-6.2236c0.659-1.211,1.3386-2.4616,0.8829-3.8769
		c-0.2953-0.1183-0.5671-0.1726-0.8243-0.1726c-0.8536,0-1.5371,0.6018-2.376,1.4427l-4.4509,4.4524
		c-4.4704,4.47-9.0944,9.0925-13.6079,13.671c-0.662,0.6722-1.2829,1.5914-1.8959,2.8102
		c-2.2098,4.3903-4.4059,8.7874-6.602,13.1845c-2.4699,4.9442-4.9398,9.8889-7.4292,14.8228
		c-0.6864,1.3611-1.0541,2.8234-1.1557,4.602c-0.5417,9.5227-1.1049,19.0444-1.6681,28.5661
		c-0.3363,5.6761-0.6717,11.3526-1.0032,17.0292c-0.1242,2.1203-0.2669,4.2402-0.4097,6.3605
		c-0.3491,5.1862-0.7108,10.5484-0.7715,15.8187c-0.1173,10.1504-0.1007,20.474-0.0841,30.4572
		c0.0088,5.6292,0.0186,11.2578,0.0049,16.8869c-0.0039,1.454,0.3579,2.6806,1.1734,3.9772
		c2.5755,4.0964,5.1393,8.2017,7.702,12.3065c3.2629,5.2258,6.5248,10.4511,9.8151,15.6588
		C160.1448,315.9874,161.0678,316.971,162.0583,317.6726z"/>
	<path d="M704.9655,314.4004c5.018-8.0976,10.9454-17.6349,16.8571-26.9777c1.0394-1.6412,1.4999-3.2096,1.4921-5.086
		c-0.043-11.0783-0.0401-22.342-0.0372-33.2351v-12.924c0-1.0961-0.0332-2.2113-0.0978-3.3147l-1.0482-17.7044
		c-0.9338-15.7434-1.8676-31.4868-2.772-47.2317c-0.1066-1.8397-0.5319-3.4418-1.3386-5.042
		c-2.0162-3.9977-4.0167-8.0037-6.0163-12.0097c-2.5579-5.1222-5.1158-10.2448-7.707-15.3508
		c-0.6805-1.341-1.6006-2.6273-2.6596-3.72c-3.2658-3.3641-6.6421-6.7331-9.9069-9.9916l-3.4056-3.4037
		c-0.7872-0.7881-1.5762-1.5733-2.3653-2.3589l-2.2079-2.2c-0.8888-0.8888-1.7072-1.1264-2.6263-0.7509
		c-0.4331,1.4246,0.1232,2.642,0.839,3.9649l1.9164,3.5425c3.3069,6.1112,6.6138,12.2229,9.8854,18.3526
		c0.7393,1.3855,1.2467,2.6503,1.5537,3.8657c2.2186,8.7918,4.5966,18.38,7.483,30.1746c0.2816,1.1548,0.4254,2.3086,0.4263,3.4291
		c0.0235,16.5721,0.0381,34.4162-0.0195,52.6159c-0.0039,1.2369-0.3432,2.6459-0.9299,3.8667
		c-1.9615,4.074-4.0314,8.1772-6.033,12.1451l-1.5429,3.06c-0.1956,0.3906-0.4322,0.7617-0.6835,1.1543
		c-0.1242,0.1946-0.2552,0.3999-0.3921,0.6238l-0.2298,0.3774l-1.2526-0.5109c-0.573-0.2317-1.1147-0.4508-1.6505-0.685
		l-15.7023-6.8758c-12.8736-5.6389-25.7481-11.2778-38.6354-16.8874c-3.5895-1.563-7.0245-3.5088-10.2081-5.7841
		c-0.662-0.4728-1.3141-0.9602-1.9673-1.4476c-1.1548-0.8624-2.3496-1.7547-3.5718-2.5418
		c-1.8295-1.1782-3.6814-2.3218-5.5333-3.4648c-2.4014-1.4818-4.8841-3.014-7.2758-4.6034
		c-2.1365-1.4188-4.2475-2.9441-6.2891-4.4186c-1.7249-1.2467-3.5083-2.5349-5.2938-3.7498
		c-8.7111-5.9254-17.5973-11.9075-26.1911-17.6926l-4.3619-2.9368c-6.0526-4.0764-12.1178-8.1337-18.183-12.1911l-1.2584-0.8419
		c-1.3132-0.8781-2.4767-1.0252-2.9676-0.376c-0.3344,0.4439-0.5525,1.0624,1.1039,2.7847
		c2.6195,2.7231,5.2351,5.4507,7.8497,8.1782l11.004,11.4577c3.0223,3.1411,6.0447,6.2823,9.0583,9.4318
		c1.9507,2.0387,3.8916,4.0876,5.8315,6.1361c1.6115,1.7009,3.2228,3.4017,4.8391,5.0967l2.5217,2.6449
		c3.4868,3.6574,7.0909,7.4395,10.6725,11.1224c2.069,2.1282,4.2153,4.2544,6.2911,6.3107
		c1.0022,0.9934,2.0054,1.9864,3.0038,2.9837c0.3989,0.398,0.791,0.8033,1.1763,1.2154l2.0739,2.2235
		c1.85,1.9859,3.7,3.9718,5.5676,5.9415c0.2014,0.2127,0.5329,0.3779,0.8536,0.5378l0.2054,0.1032
		c2.8013,1.4364,5.5939,2.8908,8.3865,4.3458c6.3029,3.2829,12.8198,6.6783,19.3319,9.7935
		c14.2337,6.8093,27.9951,14.9612,41.3047,22.8446l1.103,0.6532c0.3383,0.2004,0.617,0.4483,0.9396,0.7358
		c0.1506,0.134,0.312,0.2777,0.4938,0.4288l0.4,0.331l-24.7997,29.7928l-1.2095-0.352l0.0635-0.9133
		c0.0225-0.3823,0.046-0.7646,0.1017-1.1421c0.4664-3.1636,0.9367-6.3273,1.4061-9.4909c0.7372-4.9569,1.4735-9.9143,2.1971-14.8732
		c0.2826-1.9419,0.5349-3.8882,0.7881-5.8345c0.1575-1.2115,0.3149-2.4235,0.4791-3.6345c0.1692-1.2433-0.2581-2.0143-1.5244-2.751
		c-4.5418-2.644-9.1277-5.3866-13.562-8.0389l-5.2341-3.1333c-0.2366-0.1481-0.4595-0.288-0.6864-0.3833
		c-0.5779-0.2435-1.0707-0.3652-1.4735-0.3652c-0.2601,0-0.483,0.0504-0.6678,0.152c-0.4693,0.2591-0.793,0.9064-0.9622,1.9248
		c-0.0381,0.2229-0.0704,0.4459-0.1027,0.6688l-1.9067,12.8887c-2.1785,14.703-4.4304,29.9062-6.5795,44.8683
		c-0.306,2.1213-1.1929,3.4775-3.0634,4.6821c-17.8583,11.4944-35.9866,23.2269-53.5174,34.5727l-10.9581,7.0919
		c-1.9292,1.2481-2.1678,1.8109-1.7033,4.0138c0.089,0.418,0.2444,0.8292,0.4097,1.2648l0.0929,0.2479
		c2.8737,7.6908,5.7494,15.3811,8.631,23.069c0.8008,2.1355,1.2946,2.399,3.5435,1.8749c0.441-0.1027,0.8732-0.2669,1.3298-0.441
		l5.7064-2.0954c6.3204-2.3154,12.6409-4.6313,18.9476-6.9819c1.1558-0.4307,2.2792-1.0203,3.2473-1.7048
		c15.409-10.8828,30.8121-21.7725,46.2152-32.6626c16.4259-11.6137,32.8528-23.2274,49.2855-34.8323
		C702.9473,317.0703,704.0287,315.9111,704.9655,314.4004z"/>
	<path d="M529.4482,568.2992c-0.3364-0.7558-0.9133-1.6818-1.7532-1.7996c-0.6942-0.0963-1.451,0.351-2.2343,1.2868
		c-0.9631,1.1508-1.9047,2.3198-2.8464,3.4887l-9.1971,11.3282c-10.3607,12.7519-20.7223,25.5037-31.1054,38.237
		c-1.2027,1.473-1.6623,2.683-1.586,4.1766c0.0674,1.3322,0.0508,2.6826,0.0342,3.9889c-0.0157,1.2819-0.0323,2.6082,0.0323,3.8999
		c0.1007,2.0284-0.5788,3.3431-2.2724,4.3961c-1.7551,1.0912-3.4956,2.2802-5.1794,3.4306
		c-1.3151,0.8981-2.6302,1.7967-3.9669,2.6616c-1.1,0.7108-1.7669,1.5933-2.1619,2.861c-0.4469,1.4339-0.9299,2.8566-1.4129,4.2788
		c-0.5075,1.4965-1.0335,3.0443-1.5038,4.576c-0.4566,1.4843-1.3191,2.399-2.7945,2.9651l-2.1902,0.8355
		c-3.3802,1.2853-6.8768,2.6146-10.2072,4.1375c-6.5512,2.9955-11.8342,3.9987-17.1289,3.2531
		c-0.6004,0-1.1997,0.0054-1.7991,0.0103c-1.4422,0.0112-2.9324,0.0245-4.402-0.0333l-0.1594-0.0063
		c-1.2623-0.0489-2.5687-0.0992-3.7459-0.5529c-3.9219-1.5107-7.8868-3.0962-11.7227-4.6298
		c-2.6126-1.0448-5.2263-2.09-7.8458-3.1202c-1.2858-0.5055-2.0456-1.3249-2.465-2.6576c-0.4351-1.3817-0.9005-2.7549-1.365-4.1277
		c-0.5486-1.6197-1.1157-3.2947-1.6251-4.9608c-0.3735-1.2222-1.0482-2.0983-2.1863-2.841
		c-1.5772-1.0296-3.1377-2.0846-4.6992-3.1401c-1.6085-1.0878-3.2179-2.1751-4.8449-3.2346
		c-1.3044-0.8492-1.8676-1.8969-1.8255-3.3973c0.0371-1.3337,0.0274-2.6957,0.0176-4.0133
		c-0.0117-1.5063-0.0235-3.0634,0.0352-4.5986c0.0577-1.4711-0.3784-2.661-1.4569-3.9791
		c-6.4955-7.9333-12.9577-15.8934-19.4199-23.8541l-9.4855-11.6807c-4.0725-5.0171-8.2838-10.2052-12.4619-15.2766
		c-0.5857-0.7123-1.3298-1.2496-1.9419-1.4026c-0.3256-0.0812-0.5759-0.1432-0.79-0.1432c-0.5632,0-0.8781,0.4327-1.675,2.0925
		c-10.8271,22.5654-21.6522,45.1323-32.4753,67.7002l-0.1672,0.3393c-0.1897,0.3818-0.3696,0.7426-0.4791,1.1118
		c-0.6003,2.024-0.2405,2.8297,1.675,3.7498c0.2865,0.1374,0.571,0.2723,0.8585,0.4058l20.9081,9.6895
		c34.3987,15.9404,68.7963,31.8808,103.1832,47.8457c2.1247,0.9866,4.0314,0.9773,6.1816-0.0308
		c31.9131-14.9592,63.837-29.8959,95.7608-44.8326l27.9032-13.056c1.9664-0.9196,2.2303-1.4481,1.7698-3.5322
		c-0.1154-0.5192-0.3442-1.0252-0.5867-1.561l-0.1545-0.3417c-1.7874-4.0451-3.5816-8.0878-5.3749-12.1295l-7.0372-15.8553
		C541.8681,596.2698,535.6621,582.2831,529.4482,568.2992z"/>
	<path d="M491.244,508.0938c-0.1173-0.7998-0.6893-1.563-1.7502-2.333l-12.593-9.1355
		c-8.6388-6.2652-17.2775-12.5304-25.9055-18.8112c-0.9759-0.7104-1.9576-1.0291-3.1759-1.0291c-0.0186,0-0.0372,0-0.0567,0.0005
		c-3.7508,0.0313-7.5036,0.0269-11.2534,0.021l-4.2896-0.0034l-4.315,0.0029c-3.9024,0.0044-7.8028,0.0083-11.7051-0.0186
		c-0.0156,0-0.0323-0.0005-0.0479-0.0005c-1.1332,0-2.0504,0.2982-2.9656,0.9631c-8.1548,5.9279-16.3193,11.844-24.4839,17.7601
		l-14.4146,10.4482c-1.5244,1.1054-1.8343,2.4484-0.9475,4.1057c0.3276,0.6116,0.7509,1.2051,1.1597,1.7786l0.1164,0.1633
		c3.479,4.888,6.1728,9.662,8.2359,14.5941c1.9311,4.6191,4.1047,9.2342,6.206,13.6973c0.9172,1.9473,1.8343,3.8945,2.7349,5.8482
		l2.1502,4.6635c2.3193,5.0308,4.6377,10.061,6.9677,15.0864c0.7764,1.6769,1.4227,1.7996,2.4846,1.4393
		c0.4537-0.1535,0.969-0.5896,1.5293-1.2955l0.1486-0.1868c2.3858-3.0038,4.8528-6.1097,7.1535-9.2499
		c1.1391-1.5547,2.4797-2.1639,4.4304-2.1971c10.214,0.0768,20.5062,0.0768,30.5911,0c0.0235,0,0.0469,0,0.0694,0
		c2.0553,0,3.4262,0.6776,4.5751,2.2578c2.1609,2.972,4.5027,5.8946,6.7682,8.7214l0.5554,0.6923
		c0.5319,0.6654,1.0746,1.1035,1.5273,1.233c1.2193,0.3495,1.7228,0.1956,2.4904-1.4686c1.2848-2.7867,2.5569-5.5793,3.829-8.3719
		c2.5178-5.5269,5.1207-11.2421,7.7881-16.815c1.2956-2.7061,2.5286-5.506,3.7205-8.2134
		c3.2922-7.4757,6.6959-15.2061,11.8283-21.9343C491.0758,509.6196,491.3526,508.83,491.244,508.0938z"/>
	<path d="M576.1583,733.3325c-0.0294-0.9352-0.0597-1.9023-0.1995-2.8287c-3.7938-25.0744-7.616-50.145-11.4382-75.216
		l-0.0293-0.1931c-0.2679-1.7566-0.5525-3.5103-0.839-5.2698l-0.352-2.1776c-0.4723-0.1173-0.9123-0.1711-1.3356-0.1711
		c-1.014,0-1.9272,0.3085-2.9412,0.7832c-31.4672,14.7333-62.9403,29.453-94.4134,44.1731l-20.384,9.5334
		c-0.4957,0.2322-0.9934,0.4669-1.4755,0.726c-0.617,0.3329-0.615,0.861-0.5583,1.7659c0.0332,0.5358,0.2767,0.7348,1.0443,0.9044
		c0.5055,0.1115,1.0091,0.2269,1.5136,0.3422l1.0531,0.2391l97.0545,21.7788c9.8766,2.2157,19.7533,4.4284,29.6339,6.6274
		l0.2621,0.0592c1.1557,0.262,2.2538,0.5109,3.4408-0.0802C576.1788,733.9994,576.169,733.6669,576.1583,733.3325z"/>
	<path d="M298.7876,734.0366c37.2782-8.6016,74.5535-17.213,111.8289-25.8249l1.8314-0.4224
		c3.1935-0.7368,6.386-1.473,9.5706-2.2489c1.1391-0.2777,1.2036-0.4507,1.1831-1.6779c-0.0146-0.8732-0.486-1.1-1.3865-1.4579
		c-0.1819-0.0723-0.3637-0.1447-0.5368-0.2253c-38.74-18.0158-77.4869-36.0174-116.2348-54.017l-0.266-0.1247
		c-0.4811-0.2283-0.9357-0.4434-1.4002-0.55c-0.968-0.222-1.54-0.2225-1.8529-0.0024c-0.3168,0.2239-0.5104,0.7803-0.6287,1.804
		c-0.0782,0.6835-0.1369,1.3694-0.1956,2.0553l-4.7256,54.5069c-0.7236,8.298-1.4481,16.5961-2.1512,24.896
		c-0.0792,0.9313-0.0567,1.895-0.0352,2.8268c0.0078,0.312,0.0147,0.6224,0.0186,0.9314c1.4901,0.4014,2.8082,0.0718,4.1967-0.2772
		C298.2654,734.1622,298.5265,734.0967,298.7876,734.0366z"/>
	<path d="M306.0594,368.9406c-1.0022,0.1912-1.541,0.683-1.9233,1.7561c-0.6825,1.9194-1.4051,3.8251-2.1277,5.7308l-2.7906,7.397
		c-1.6133,4.2778-3.2267,8.5557-4.8098,12.8442c-0.7285,1.9712-0.9054,3.6144,0.5965,5.2273
		c10.5386,11.3174,21.0567,22.6539,31.5748,33.99c5.1989,5.6027,10.3968,11.2055,15.5977,16.8062
		c0.8624,0.9279,1.6368,1.387,2.3672,1.4022c0.7842-0.0015,1.5889-0.4395,2.5501-1.3919
		c9.8512-9.7578,19.6946-19.5221,29.5351-29.2897c1.894-1.8808,2.0211-3.2966,0.4869-5.4116l-1.8959-2.6112
		c-8.7679-12.0782-17.8349-24.5675-26.8042-36.8128c-0.6532-0.8927-1.63-1.7131-2.6801-2.2509
		c-6.9932-3.5802-13.867-6.9721-19.6682-9.818c-0.6522-0.3202-1.3865-0.506-1.9771-0.6551
		c-0.2004-0.0504-0.3823-0.0968-0.5397-0.1418c-0.3667,0.0298-0.6815,0.0494-0.9621,0.067
		c-0.5349,0.0332-0.9211,0.0572-1.2868,0.1295c-1.9312,0.3813-3.8603,0.771-5.7895,1.1602
		C312.3632,367.7036,309.2148,368.3392,306.0594,368.9406z"/>
	<path d="M515.9469,378.1513c-8.5381,11.689-17.7449,24.3509-28.9748,39.8474c-1.2878,1.7776-1.1587,3.28,0.4204,4.8708
		c9.8854,9.9593,19.7758,19.9127,29.6769,29.8553c0.9328,0.9377,1.7053,1.3763,2.4269,1.3763c0.0107,0,0.0215-0.0005,0.0313-0.0005
		c0.7363-0.0127,1.5107-0.484,2.4376-1.4828l13.4055-14.4473c11.2025-12.0747,22.4041-24.149,33.6281-36.2027
		c0.9514-1.0218,1.2966-2.0206,1.1196-3.2379c-0.1261-0.8643-0.3314-1.6798-0.6091-2.4244
		c-1.0472-2.8048-2.1032-5.6066-3.1592-8.4085c-2.0593-5.4615-4.1888-11.1087-6.2119-16.6904
		c-0.5524-1.5219-1.3366-2.1663-2.9969-2.4621c-3.0067-0.5344-6.0466-1.1538-8.9868-1.7522
		c-1.4648-0.2987-2.9305-0.597-4.3972-0.8864c-0.5583-0.1105-1.1235-0.1912-1.7972-0.2885c-0.3217-0.046-0.6678-0.0958-1.0491-0.154
		c-0.2015,0.0494-0.4263,0.0944-0.6649,0.1423c-0.6385,0.1276-1.3621,0.2723-1.9839,0.5769
		c-6.5629,3.2096-13.2129,6.5223-20.3322,10.1279C517.1389,376.912,516.4153,377.5099,515.9469,378.1513z"/>
	<path d="M470.7564,637.8093c1.1352-0.7656,2.3095-1.5571,3.5152-2.2641c1.3269-0.7783,1.8167-1.7155,1.806-3.4589
		c-0.0508-8.5884-0.045-17.3196-0.0401-25.7638l0.0039-9.1482c0-0.1579,0.0059-0.3173,0.0127-0.4772
		c0.0147-0.3853,0.0294-0.749-0.0518-1.0555c-0.1701-0.6469-0.4009-0.9739-0.5466-1.058l-0.7989-0.462
		c-2.1032-1.2183-4.2788-2.4782-6.5121-3.475c-1.4677-0.6561-2.3281-0.2855-3.1759,1.364c-0.2239,0.439-0.44,0.8834-0.6551,1.3273
		c-0.2728,0.5618-0.5456,1.1235-0.836,1.6755c-1.0384,1.9702-1.0316,3.9019,0.0176,5.9058
		c0.6317,1.2056,1.2271,2.4303,1.8255,3.6594c0.2699,0.554,0.5397,1.1093,0.8135,1.6642l0.1741,0.3515l-0.2914,0.263
		c-0.1653,0.1481-0.308,0.2899-0.4391,0.421c-0.2796,0.2772-0.5436,0.5397-0.8731,0.7211
		c-1.0101,0.5568-1.3044,1.4476-0.9846,2.9783c0.1281,0.6175,0.7822,1.3088,1.1333,1.6804c1.2486,1.3185,2.5286,2.6063,3.8104,3.896
		l1.7581,1.7742l-5.4864,10.9395l-0.439-0.1696c-4.1996-1.6232-17.9952-8.697-19.5597-10.173l-0.4331-0.4087l1.0443-0.8423
		c0.4243-0.3461,0.8438-0.6884,1.276-1.0125c1.1254-0.8428,2.244-1.6955,3.3626-2.5482c2.8327-2.1594,5.7621-4.3922,8.7591-6.429
		c1.6231-1.1019,2.0064-2.7134,1.1411-4.7887c-0.4772-1.1445-0.9543-2.0993-1.4589-2.9192
		c-0.8096-1.3122-0.8087-2.6102,0.0039-4.0857c0.9504-1.7268,1.8666-3.589,2.7231-5.5348c0.5192-1.1807,0.9445-2.7207,0.0196-3.3528
		l-0.4097-0.2811c-2.0289-1.3943-4.1263-2.8356-6.7986-2.8356c-0.0147,0-0.0293,0-0.044,0
		c-2.3956,0.0142-4.7921,0.0347-7.1887,0.0557c-9.1717,0.0792-18.6553,0.1608-27.9756-0.1345
		c-6.9276-0.2161-12.3945,1.1103-17.1827,4.1835c-0.1809,0.1154-0.3637,0.2043-0.5436,0.265
		c-0.9856,0.3319-1.3572,0.9749-1.1714,2.024c0.1262,0.7202,0.2904,1.4672,0.6268,2.0568c0.7402,1.2921,1.5723,2.5452,2.4728,3.7244
		c1.0013,1.3102,1.0863,2.5359,0.2699,3.8569c-0.5124,0.8282-1.1518,1.9291-1.5557,3.0981
		c-0.8908,2.5809-0.2611,3.6472,1.1264,4.6166c3.2296,2.2558,6.4192,4.6758,9.5031,7.0161c1.059,0.8028,2.1169,1.6061,3.1778,2.4039
		c0.3364,0.2523,0.6258,0.5329,0.9934,0.8883c0.1838,0.178,0.3882,0.3755,0.6268,0.5969l0.5475,0.507l-20.692,10.431
		l-5.6624-11.3247l0.2777-0.2645c0.5984-0.5691,1.1899-1.1269,1.7747-1.6793c1.3053-1.2306,2.5794-2.4318,3.8251-3.6624
		c0.836-0.8267,1.2428-1.6387,1.2076-2.4136c-0.0333-0.7612-0.4958-1.5142-1.3719-2.2377
		c-0.2435-0.2005-0.4811-0.4073-0.7695-0.6576l-0.793-0.6844l1.0814-2.1218c0.6229-1.2198,1.2125-2.376,1.7884-3.5386
		c0.9817-1.9815,0.8829-3.7147-0.3012-5.2991c-0.2601-0.3477-0.4977-0.7114-0.7353-1.0756
		c-0.1154-0.1774-0.2307-0.3549-0.3491-0.5304c-0.8839-1.3083-1.5869-1.8954-2.5638-1.8954c-0.5554,0-1.1988,0.1891-2.0132,0.5427
		c-0.4439,0.1926-0.8761,0.4126-1.3083,0.6317c-0.5564,0.2825-1.1323,0.575-1.7317,0.8101c-1.0971,0.4312-1.5038,1.1049-1.499,2.486
		c0.0411,12.3515,0.0401,24.5-0.002,36.1083c-0.0039,1.2501,0.4136,1.9996,1.4921,2.6728c2.115,1.3229,4.3414,2.7901,7.0049,4.6181
		c0.9064,0.6234,1.8774,0.9133,3.0546,0.9133c0.002,0,0.0039,0,0.0059,0c7.6395-0.0073,15.2799-0.0098,22.9204-0.0117
		c14.0381-0.0044,28.0763-0.0089,42.1144-0.0435c0.8683-0.0024,1.9292-0.3261,2.8376-0.8654
		C468.5691,639.2848,469.6808,638.5349,470.7564,637.8093z"/>
	<path d="M386.8141,425.712c3.1054,5.0542,6.2158,10.105,9.3261,15.1563c6.0398,9.8082,12.0786,19.6164,18.0852,29.4447
		c0.7842,1.2834,1.6183,1.7439,3.172,1.7439c0.0166,0,0.0332-0.0005,0.0508-0.0005c4.8733-0.0318,9.7466-0.0479,14.5828-0.0479
		c4.9114,0,9.7847,0.0166,14.5876,0.0494c1.5449-0.0113,2.4161-0.4679,3.2101-1.7654c6.6294-10.8344,13.294-21.6478,19.9586-32.4607
		l7.5896-12.3167c0.2796-0.4503,0.5691-0.9157,0.7196-1.3816c0.574-1.7815,0.1868-2.5447-1.5948-3.1411l-1.8119-0.6096
		c-2.595-0.8756-5.2781-1.781-7.9435-2.5613c-1.6036-0.4703-3.127-0.7128-4.5272-0.7216c-7.5564-0.0489-15.2408-0.043-22.672-0.0372
		l-7.4449,0.0039l-6.9276-0.002c-7.8125-0.0039-15.6202-0.0073-23.4298,0.0235c-1.3777,0.0054-2.5882,0.1677-3.5992,0.4825
		c-2.9431,0.9177-5.9107,1.9453-8.7796,2.9397l-1.852,0.6404c-1.7141,0.5911-1.8754,0.8561-1.5635,2.5809
		C386.0827,424.4629,386.5061,425.2124,386.8141,425.712z"/>
	<path d="M729.8864,225.1766c3.0194-10.4672,6.1415-21.2909,9.157-31.9512c0.4918-1.738,0.8105-3.4389,0.9474-5.0542
		c1.1225-13.2095,2.4308-28.8057,3.6266-44.3301c0.1848-2.4093,0.1056-4.8542-0.2347-7.2674
		c-2.3926-16.9823-4.8185-33.9606-7.2435-50.9385c-1.3856-9.6938-2.7701-19.3876-4.1497-29.0824
		c-0.2025-1.4198-0.6904-2.5745-1.5361-3.634c-2.9109-3.6408-5.7895-7.3095-8.6661-10.9772l-7.3315-9.3237
		c-3.4017-4.3184-6.8015-8.6368-10.1886-12.9655c-1.0325-1.3181-1.7825-1.8739-3.0859-1.3616
		c-0.3569,1.4344,0.175,2.6439,0.7363,3.9205l4.5037,10.2971c4.1214,9.4205,8.2418,18.8415,12.3348,28.2743
		c0.5916,1.3655,0.9269,2.6532,0.9944,3.828c0.5837,10.1392,1.1499,20.2799,1.715,30.42
		c0.6688,11.9872,1.3376,23.9749,2.0367,35.9602c0.2327,3.9884-0.002,7.2747-0.7392,10.3426
		c-0.3393,1.4139-0.6024,2.8806-0.8575,4.2988c-0.3286,1.8309-0.6688,3.7239-1.1792,5.5499
		c-1.2359,4.4191-0.7549,8.0526,1.5136,11.4348c1.3689,2.0392,1.6691,4.3707,1.7816,6.3825
		c0.88,15.7009,1.8343,31.6618,2.7583,47.0972l0.5241,8.7679c0.0294,0.5011,0.1056,1.0071,0.1799,1.4965
		c0.0137,0.0934,0.0274,0.1858,0.0411,0.2772C729.3916,226.8906,729.42,226.7924,729.8864,225.1766z"/>
	<path d="M143.8626,154.0961c-1.1411-5.5538-2.2196-11.0021-3.2052-16.1927c-0.2376-1.254-0.3256-2.4914-0.2601-3.677
		c0.4028-7.3437,0.8174-14.6864,1.232-22.0296c0.8028-14.2229,1.6329-28.9299,2.3643-43.3987
		c0.2073-4.1048,1.1274-7.9196,2.8131-11.6626c3.9962-8.8759,7.9465-17.9537,11.7667-26.7323
		c1.1714-2.6928,2.3438-5.3862,3.5181-8.0775l0.1604-0.3637c0.5436-1.2247,1.058-2.3853,0.7607-3.7772
		C162.6831,18.0587,162.3888,18,162.1199,18c-0.923,0-1.5537,0.6928-2.3535,1.7082c-8.7708,11.1556-17.5415,22.3107-26.3397,33.4448
		c-0.7314,0.926-1.1509,1.9482-1.32,3.216c-0.5495,4.1248-1.1411,8.2438-1.7317,12.3622l-2.6039,18.1409
		c-2.4161,16.8204-4.8322,33.6409-7.2122,50.4657c-0.2806,1.9737-0.3452,3.9385-0.1946,5.8413
		c1.2653,16.0128,2.6185,32.1395,3.788,45.9982c0.0851,1.0115,0.2982,2.0959,0.6708,3.412
		c2.4269,8.5806,4.8733,17.1558,7.3197,25.731l1.7141,6.0066c0.0929,0.328,0.1946,0.6541,0.2953,0.9798
		c0.087,0.2826,0.175,0.5647,0.2581,0.8482c0.1653,0.5647,0.4742,0.8751,1.5253,0.7739c0.4518-0.042,0.7255-0.2185,0.7852-0.9949
		c0.0274-0.3667,0.046-0.7343,0.0655-1.102l0.0303-0.5593c0.2748-4.688,0.5544-9.375,0.8331-14.0626
		c0.7519-12.6047,1.5283-25.6386,2.1951-38.4619c0.1858-3.567,0.7089-7.7333,3.1808-11.5932
		C144.1002,158.4757,144.3662,156.5504,143.8626,154.0961z"/>
	<path d="M655.9655,392.362c-1.5967-0.5334-2.5051,0.2024-3.5885,1.2863c-11.6396,11.6435-21.9514,21.9123-31.5249,31.3934
		c-1.1245,1.1122-2.4592,2.1418-3.8613,2.9774c-5.679,3.3871-11.4773,6.7893-17.0839,10.0791l-18.1507,10.6647
		c-9.4894,5.5768-18.978,11.1537-28.4655,16.7339c-1.7991,1.058-1.9047,1.1201-1.4725,3.036
		c0.1956,0.0107,0.3931,0.0229,0.5925,0.0352c0.7167,0.044,1.454,0.0885,2.1883,0.0782c12.6741-0.1951,25.3483-0.3984,38.0214-0.638
		c1.0502-0.0196,2.0426-0.1863,2.8718-0.4825c8.2428-2.9422,16.4807-5.8961,24.7195-8.8495
		c9.1716-3.2883,18.3443-6.5771,27.5219-9.8493c1.231-0.4385,1.7209-1.0335,1.8724-2.2734c1.1548-9.4014,2.3281-18.8009,3.5015-28.2
		c0.9504-7.6087,1.9008-15.2173,2.8405-22.8275c0.0919-0.7485,0.0674-1.5185,0.04-2.334
		C655.9791,392.9174,655.9703,392.6407,655.9655,392.362z"/>
	<path d="M216.6112,448.933c8.3699,2.9832,16.7349,5.9821,25.0999,8.9805c8.7453,3.1353,17.4917,6.2706,26.2439,9.3887
		c1.2173,0.4332,2.5256,0.6698,3.785,0.683c9.291,0.0973,18.7393,0.1501,27.8768,0.2009l7.7568,0.0445
		c0.5896,0.0029,1.1792,0.0029,1.7972,0.002l0.4537-0.0005c0.4341-2.0807,0.3188-2.1506-1.671-3.3514l-12.5617-7.5818
		c-15.6055-9.4215-31.212-18.8425-46.8391-28.2283c-2.7681-1.6632-5.1901-3.5601-7.4038-5.7988
		c-5.6731-5.7362-11.3736-11.4455-17.0751-17.1548c-4.2143-4.2197-8.4276-8.4393-12.6301-12.6702
		c-1.0941-1.102-2.0309-1.6251-3.4487-1.0017c0.0098,0.288,0.0166,0.5759,0.0244,0.8639c0.0205,0.8365,0.042,1.7014,0.1447,2.5291
		c0.6991,5.6521,1.4051,11.3033,2.111,16.9544c1.3748,11.0109,2.7965,22.3963,4.1468,33.6003
		C214.6096,447.947,215.3068,448.4676,216.6112,448.933z"/>
	<path d="M253.2636,427.3366c20.4798,12.3588,40.8795,24.6828,61.2781,37.0069l18.4988,11.182
		c0.352,0.222,0.6844,0.4317,1.0296,0.5603c0.9054,0.3388,1.5909,0.3833,2.0944,0.1354c0.4997-0.2474,0.879-0.8145,1.1587-1.7341
		c1.2965-4.2661,2.5804-8.5356,3.8408-12.8125c0.1603-0.5446,0.263-1.1029,0.3716-1.694c0.0489-0.265,0.0968-0.5295,0.1516-0.7925
		c0.1154-1.1489-0.3853-1.9487-1.1733-2.7945c-10.8378-11.6401-21.6659-23.2895-32.4939-34.9389l-15.5058-16.6801
		c-0.793-0.8521-1.6104-1.2687-2.5384-1.2687c-0.4957,0-1.0228,0.1188-1.5948,0.3535c-0.2992,0.1227-0.5828,0.285-0.8663,0.4464
		l-0.351,0.196l-33.7905,18.3907c-0.1183,0.0645-0.2454,0.1217-0.3735,0.1789c-0.2034,0.0905-0.4136,0.1838-0.4987,0.288
		c-0.3588,0.4361-0.8037,0.9783-0.9328,1.5043C251.2709,426.0684,251.9818,426.5641,253.2636,427.3366z"/>
	<path d="M576.4877,404.2877c-0.9895-0.5329-1.7639-0.8101-2.462-0.8101c-0.9612,0-1.7776,0.5266-2.8141,1.6364
		c-1.5938,1.7087-3.1837,3.4213-4.7726,5.1344l-5.9205,6.3747c-12.1686,13.0956-24.3372,26.1911-36.5097,39.2822l-0.3031,0.3207
		c-0.7813,0.8233-1.4569,1.5346-1.2711,2.3433l0.0117,0.0851c0.0186,0.3119,0.0225,0.5789,0.0264,0.8135
		c0.0059,0.3784,0.0098,0.6517,0.0743,0.8727c1.0931,3.7782,2.2059,7.5495,3.3176,11.3208l0.7871,2.6694
		c0.1428,0.484,0.4312,0.6654,1.188,0.748c1.1636,0.13,2.1198-0.4341,3.1211-1.0306l0.3207-0.1897l69.7017-40.8599
		c3.3763-1.9776,6.7526-3.9552,10.1201-5.9469c1.3328-0.7881,1.4863-1.3127,1.2956-2.5916
		c-0.1017-0.6835-0.5261-0.924-1.2682-1.2912c-0.1447-0.0718-0.2894-0.1432-0.4302-0.22c-5.8276-3.19-11.6611-6.3703-17.4946-9.5505
		l-8.6593-4.7257C581.8636,407.2049,579.1806,405.7372,576.4877,404.2877z"/>
	<path d="M397.6959,575.4532c1.4266-1.781,1.6231-3.5278,0.6365-5.6638l-7.615-16.4904
		c-4.3424-9.4059-8.6847-18.8117-13.033-28.2151c-0.5114-1.1068-0.7529-1.4442-1.494-1.4442c-0.2425,0-0.5388,0.0361-0.9152,0.0934
		c-0.5876,0.0884-1.2418,0.3476-2.0015,0.7915c-1.675,0.9792-3.3421,1.9722-5.0092,2.9656c-2.4005,1.43-4.8821,2.9089-7.351,4.3194
		c-1.2887,0.7363-1.7659,1.539-1.76,2.9622c0.0645,17.412,0.0577,34.5849,0.046,50.6823c-0.001,1.1376,0.3246,2.0455,1.057,2.9442
		c6.3752,7.8242,13.161,16.1633,19.8609,24.5249c0.8986,1.123,1.763,1.3895,3.1944,0.9431v-2.2772
		c0-1.4041,0.0049-2.8082,0.0088-4.2119c0.0107-3.5543,0.0215-7.2288-0.0352-10.8398c-0.0284-1.8339,0.4625-3.2849,1.5909-4.7056
		c1.9996-2.5173,3.9698-5.0581,5.9401-7.5994C393.0553,581.3434,395.3708,578.3563,397.6959,575.4532z"/>
	<path d="M480.7885,596.8052c-0.0665,3.5406-0.0518,7.1452-0.0391,10.6306c0.0059,1.3929,0.0107,2.7857,0.0117,4.1786v2.246
		c1.5723,0.5397,2.3741,0.0445,3.1944-0.9763c6.5268-8.1264,13.1933-16.3203,20.0183-24.6985
		c0.6874-0.8443,0.9934-1.6842,0.9905-2.7231c-0.0381-15.2457-0.0743-33.217-0.0567-50.9135
		c0.001-1.2452-0.4302-1.9742-1.5381-2.5989c-1.8891-1.0653-3.7782-2.1952-5.6057-3.2883
		c-0.7421-0.4434-1.4843-0.8873-2.2284-1.3283c-0.5789-0.3427-1.1528-0.6928-1.7268-1.0428
		c-1.2379-0.7543-2.5178-1.5341-3.8124-2.2181c-0.9289-0.4904-1.6613-0.6336-2.2391-0.4366
		c-0.5681,0.1921-1.0511,0.7319-1.4745,1.6505l-7.6913,16.6928c-4.2358,9.1981-8.4726,18.3956-12.7211,27.5883
		c-1.0726,2.3228-0.8653,4.139,0.6933,6.074c2.3467,2.9119,4.665,5.923,6.9081,8.8348c1.8519,2.4044,3.7039,4.8088,5.59,7.1858
		C480.2938,593.2153,480.8267,594.8017,480.7885,596.8052z"/>
	<path d="M326.1628,308.8563c0.1428,6.3962,0.1085,12.9,0.0763,19.1896c-0.0137,2.7711-0.0284,5.5421-0.0284,8.3132l0.0029,5.9024
		c0.0049,6.0017,0.0088,12.0043-0.0205,18.006c-0.0068,1.3855,0.3686,2.0597,1.4325,2.576
		c4.4108,2.1389,8.8568,4.3898,13.1552,6.5668l1.8197,0.9211c0.9387,0.4752,1.8989,0.55,3.1651,0.2366
		c0.0029-0.2977,0.0068-0.595,0.0117-0.8922c0.0156-0.9269,0.0303-1.8026-0.0235-2.687
		c-0.3148-5.1906-0.6395-10.3802-0.9651-15.5699c-0.3325-5.3079-0.6649-10.6159-0.9866-15.9243
		c-0.1369-2.268-0.2914-4.536-0.4449-6.804c-0.4019-5.9078-0.8165-12.0165-0.9152-18.0363
		c-0.0899-5.5309,0.133-11.1522,0.3491-16.5882c0.0929-2.3462,0.1858-4.6924,0.2552-7.0377
		c0.0812-2.7388,0.1682-5.4771,0.2552-8.2154c0.0753-2.3472,0.1496-4.6944,0.22-7.042l0.22-7.4777
		c0.086-2.9915,0.1731-5.9831,0.264-8.9746c0.0665-2.1301,0.1369-4.2607,0.2083-6.3908c0.0909-2.7158,0.1819-5.4316,0.2611-8.1479
		c0.088-2.9803,0.1662-5.9611,0.2444-8.9414c0.0792-2.9818,0.1574-5.9635,0.2444-8.9448c0.0782-2.6454,0.1613-5.2908,0.2454-7.9357
		c0.1281-4.0305,0.2562-8.0609,0.3608-12.0918c0.0068-0.265,0.0196-0.5314,0.0323-0.8008c0.045-0.9538,0.0919-1.935-0.1252-2.9744
		c-0.4967,0.4913-0.5681,1.0995-0.6483,1.7806c-0.0274,0.2293-0.0538,0.4527-0.0958,0.6654
		c-0.9319,4.7711-1.8314,9.5491-2.732,14.3271c-0.4674,2.4826-0.9348,4.9647-1.4061,7.4464
		c-1.1284,5.9332-2.2626,11.865-3.3958,17.7968l-2.5912,13.5742c-0.6493,3.4037-1.2926,6.8079-1.9351,10.2125
		c-1.3396,7.0924-2.7241,14.4263-4.1448,21.6287C327.3303,292.5976,325.9789,300.6263,326.1628,308.8563z"/>
	<path d="M516.8817,196.6012c-0.0186-0.0948-0.0332-0.1931-0.0479-0.2928c-0.0635-0.4336-0.0978-0.6649-0.4673-0.75
		c-0.002,0.1364-0.0039,0.2718-0.0059,0.4063c-0.0088,0.6541-0.0186,1.2721,0.0156,1.8847c0.1555,2.7999,0.3207,5.5993,0.485,8.3987
		c0.134,2.2743,0.2679,4.5492,0.397,6.824c0.0939,1.6456,0.179,3.2917,0.264,4.9379c0.1251,2.401,0.2493,4.8019,0.3989,7.2014
		c0.1868,3.0082,0.3882,6.0154,0.5896,9.0226c0.2239,3.3299,0.4468,6.6597,0.6502,9.9906c0.1271,2.0812,0.2269,4.1639,0.3276,6.2471
		c0.1056,2.2044,0.2122,4.4089,0.35,6.6113c0.1741,2.795,0.3706,5.588,0.5681,8.3816c0.2327,3.3044,0.4654,6.6089,0.661,9.9153
		c0.2474,4.1825,0.5133,9.1262,0.616,14.0821c0.0274,1.3142,0.0596,2.6283,0.0929,3.9435
		c0.132,5.2996,0.2679,10.7801,0.0274,16.1619c-0.3901,8.7502-0.9758,17.6354-1.543,26.2287
		c-0.2415,3.6716-0.484,7.3432-0.7119,11.0153l-0.2591,4.1463c-0.3364,5.3788-0.6737,10.7581-0.9885,16.1389
		c-0.0518,0.8878-0.0372,1.7869-0.0225,2.6566c0.0039,0.2689,0.0088,0.5344,0.0107,0.7959c1.4305,0.4322,2.4915,0.1354,3.7-0.4816
		l1.7523-0.8952c3.8975-1.9913,7.9269-4.0505,11.9583-5.9415c1.6193-0.7592,2.1903-1.6926,2.1834-3.568
		c-0.046-12.0161-0.0479-24.2326-0.0499-36.0472c-0.001-6.956-0.002-13.912-0.0117-20.868c-0.002-1.2926-0.1398-2.6117-0.4087-3.92
		c-1.1489-5.5807-2.3135-11.1576-3.478-16.7349c-1.7825-8.5376-3.6256-17.366-5.3778-26.0625
		c-2.1169-10.5049-4.1977-21.1994-6.21-31.542c-0.9142-4.6963-1.8275-9.3922-2.7476-14.087
		C518.6974,205.8007,517.792,201.2002,516.8817,196.6012z"/>
	<path d="M336.8412,501.2233c1.3503,1.1279,2.5833,2.4191,3.7752,3.6677c0.5593,0.5852,1.1186,1.1704,1.6896,1.741
		c1.8187,1.8128,3.0458,1.9233,5.2507,0.4781l1.0325-0.6756c2.1502-1.4066,4.3737-2.8605,6.515-4.3487
		c1.0932-0.7603,2.1287-0.9035,3.3568-0.4684c2.5188,0.8942,5.0747,1.7087,7.2435,2.3873c0.5798,0.1814,1.1812,0.3055,1.8773,0.4493
		c0.2992,0.0621,0.6131,0.1266,0.9445,0.2004c0.218-0.0816,0.4488-0.1564,0.6854-0.2332c0.6004-0.1946,1.2213-0.396,1.6984-0.7397
		c5.767-4.1537,11.5233-8.322,17.2795-12.4908c5.986-4.3355,11.9721-8.6711,17.9708-12.9895
		c1.015-0.7304,1.3513-1.5586,1.1274-2.7691c-0.1115-0.6008-0.4469-0.7065-1.3083-0.8365c-0.1995-0.0303-0.396-0.0606-0.5789-0.1041
		c-18.5193-4.4089-37.0465-8.7899-55.5737-13.1679c-0.8243-0.1946-1.451-0.2982-2.0309-0.3369
		c-0.4293-0.0288-0.7686-0.0518-1.0423-0.0518c-1.0404,0-1.1391,0.328-1.6134,1.9013c-1.2995,4.3218-2.595,8.6451-3.8906,12.9689
		l-1.9429,6.4857c-1.3034,4.3497-2.6087,8.6989-3.917,13.0467C334.6031,497.956,335.0362,499.716,336.8412,501.2233z"/>
	<path d="M528.8733,496.3857c-0.089-0.5681-0.264-1.1518-0.4332-1.716c-3.1671-10.6002-6.3165-21.1345-9.4748-31.6657
		c-0.1457-0.485-0.3236-0.9607-0.5309-1.518c-0.0684-0.1833-0.1398-0.3755-0.2151-0.5789
		c-0.3931,0.0386-0.7842,0.0704-1.1714,0.1017c-1.0873,0.0885-2.115,0.1716-3.1035,0.4038
		c-16.9089,3.9679-33.8081,7.9763-50.7072,11.9848l-4.4206,1.0482c-0.5124,0.1212-1.0149,0.2801-1.4921,0.4297
		c-0.132,0.0421-0.2621,0.0826-0.3901,0.1222c-0.4811,1.4833-0.0841,2.4264,1.4403,3.5235
		c13.7389,9.8816,24.1768,17.4677,33.8442,24.5968c1.9106,1.409,3.7596,1.697,5.9919,0.9323
		c0.926-0.3168,1.8568-0.6219,2.7877-0.927c1.4657-0.4806,2.9813-0.9773,4.4509-1.5126c0.5241-0.1912,1.0208-0.2875,1.5097-0.2875
		c0.6962,0,1.3748,0.1956,2.0915,0.5916c1.1186,0.6184,2.2822,1.208,3.4066,1.7781c1.1323,0.5739,2.2636,1.1474,3.3744,1.7595
		c2.421,1.3337,4.317,1.1602,6.1483-0.5608c1.847-1.7326,3.5651-3.1294,5.2527-4.2705
		C528.6924,499.6329,529.1832,498.3662,528.8733,496.3857z"/>
	<path d="M598.1801,493.1213l-0.1536-0.5261c-1.6788-5.9044-3.3616-11.8073-5.0444-17.7097
		c-0.6522-2.2875-0.6464-2.288-3.0928-2.2445c-5.5988,0.1012-11.1967,0.2166-16.7935,0.3319l-7.1193,0.1462l-6.4426,0.1281
		c-5.9039,0.1193-11.8078,0.2391-17.7127,0.3207c-1.6749,0.023-3.0282,0.3896-4.2592,1.1538
		c-1.4804,0.9191-3.0175,1.7903-4.5047,2.6332c-0.7109,0.4029-1.4227,0.8062-2.1296,1.2149
		c-2.0328,1.1763-2.1355,1.3841-1.8323,3.7019c0.0694,0.5231,0.2141,1.0536,0.3598,1.5493
		c0.3677,1.2462,0.7431,2.4904,1.1186,3.7347c0.8087,2.6821,1.6447,5.4551,2.3878,8.2081c0.3774,1.4016,1.1098,2.2567,2.5256,2.9505
		c5.8169,2.8517,11.8303,5.8003,17.743,8.9375c2.3046,1.2227,4.5272,1.4388,7.2043,0.6991
		c8.454-2.332,16.9187-4.6288,25.3824-6.9257l10.3851-2.8204c2.7427-0.7461,2.9011-0.9915,2.42-3.7508
		C598.5223,494.2781,598.356,493.7163,598.1801,493.1213z"/>
	<path d="M303.9542,508.433c2.3868,0.66,4.4636,0.4644,6.5336-0.6116c5.9557-3.1001,11.9975-6.0716,18.1781-9.0959
		c1.2281-0.6003,1.8705-1.3611,2.2206-2.6268c0.6493-2.3486,1.3669-4.7173,2.0612-7.0078c0.4038-1.3318,0.8076-2.664,1.2007-3.9987
		c0.1956-0.6635,0.308-1.3909,0.4077-2.0328c0.2298-1.4779-0.2386-2.3917-1.6143-3.1544c-3.216-1.7835-6.2735-3.6819-9.6508-5.7997
		c-1.1802-0.7407-2.4093-1.0472-3.7674-1.0746c-5.6028,0.0308-11.2055,0.0254-16.8073,0.022l-6.4182-0.0029v-0.4312l-5.9059-0.0005
		c-2.1423-0.0005-4.2847-0.0005-6.426-0.0005c-3.3646,0-6.7292,0.0005-10.0937,0.0029c-2.0719,0.0015-2.0719,0.0015-2.6254,1.9355
		c-1.8177,6.3557-3.6364,12.7113-5.4199,19.0767c-0.2503,0.8932-0.399,1.8231-0.4293,2.6894
		c-0.0538,1.5478-0.0538,1.5478,1.4422,1.9653c3.2091,0.8952,6.4241,1.7693,9.6381,2.644l10.5719,2.8796
		C292.6862,505.3452,298.3231,506.8798,303.9542,508.433z"/>
	<path d="M182.4873,201.4745c1.6192,8.4012,3.3353,16.9299,4.9946,25.1781l1.585,7.8898c0.2308,1.1538,0.5192,1.782,0.9357,2.0367
		c0.4116,0.2528,1.0912,0.2264,2.199-0.0841c0.4097-0.1154,0.8086-0.2977,1.231-0.4913c0.1564-0.0714,0.3129-0.1432,0.4703-0.2112
		c7.1662-3.1128,14.3315-6.2266,21.4957-9.3433c2.8248-1.2286,2.8248-1.2286,2.5266-4.2969
		c-0.0274-0.2738-0.0694-0.5466-0.1105-0.8194l-0.8077-5.6213c-0.6942-4.8679-1.3894-9.7359-2.1286-14.5969
		c-0.2885-1.8984-0.0685-3.5342,0.6933-5.1476c1.7209-3.6472,3.3714-7.4068,4.9662-11.0427l0.704-1.6016
		c0.5788-1.3195,0.9592-2.3526,0.5251-3.4061c-1.1352-0.3496-1.9839-0.0352-2.8962,1.0477l-0.3686,0.438
		c-2.0534,2.4381-4.1771,4.9594-6.3498,7.3701c-1.0756,1.1919-1.7229,2.5168-2.0397,4.1698
		c-0.9172,4.8049-1.8969,9.6801-2.8454,14.3945l-0.8781,4.3766c-0.1643,0.8179-0.3383,1.6334-0.5134,2.4489l-0.2865,1.3479
		l-1.2447,0.2264l-0.1731-0.3491c-0.0636-0.1286-0.131-0.2567-0.1985-0.3843c-0.1555-0.2968-0.3109-0.5945-0.4341-0.9044
		l-1.672-4.2157c-2.4582-6.1967-5.0004-12.6047-7.4537-18.9266c-0.529-1.3635-0.7852-2.8116-0.966-4.0485
		c-0.7148-4.887-1.4041-9.7779-2.0934-14.6688l-1.2154-8.5953c-0.2699-1.9174-0.5495-3.8994-0.8957-5.8315
		c-0.0968-0.5422-0.4498-0.9895-0.8976-1.1401c-0.0743-0.0249-0.177-0.0489-0.2943-0.0489c-0.1701,0-0.3696,0.0509-0.5583,0.2249
		c-0.2787,0.2567-0.4996,0.8526-0.5925,1.5943l-0.1193,0.9406c-1.5185,11.9774-3.0888,24.3626-4.5262,36.5552
		C182.0473,197.6973,182.1284,199.6118,182.4873,201.4745z"/>
	<path d="M644.6172,187.4094c1.2789,2.8879,2.6009,5.8736,3.9493,8.7864c0.7226,1.561,0.9416,3.0492,0.6893,4.6831
		c-0.5652,3.6516-1.0472,7.3251-1.5146,10.8774l-0.3021,2.2778c-0.398,2.9754-0.8087,6.0525-1.0883,9.0846
		c-0.1965,2.1286-0.1965,2.1286,1.8696,3.039c6.3762,2.8087,12.7259,5.5959,19.0757,8.3831l3.564,1.5669
		c0.3334,0.1516,0.6493,0.2943,0.969,0.3838c1.1166,0.3134,1.7972,0.3383,2.2147,0.0831c0.4175-0.2562,0.7069-0.88,0.9357-2.023
		c0.66-3.2849,1.3132-6.5708,1.9673-9.8566c1.4363-7.2185,2.9216-14.6825,4.4411-22.013c0.5622-2.7104,0.6453-5.5275,0.2542-8.6119
		c-0.749-5.9014-1.4852-11.8044-2.2225-17.7073l-1.1068-8.8534c-0.4058-3.2409-0.8126-6.4813-1.2311-9.7202
		c-0.1173-0.9157-0.2357-1.165-0.8428-1.1772c-1.0795-0.0279-1.3679,0.4116-1.4423,1.1186
		c-0.0283,0.2747-0.0723,0.5495-0.1154,0.8238l-0.0596,0.3794l-1.0463,7.1779c-1.0638,7.3046-2.1277,14.6096-3.2247,21.9093
		c-0.223,1.4804-0.6014,2.9089-1.1235,4.247c-2.4514,6.2603-4.9926,12.6047-7.4507,18.7398l-1.1235,2.8053
		c-0.1535,0.3828-0.3471,0.7456-0.5925,1.2051c-0.134,0.2513-0.2875,0.5378-0.4634,0.8824l-0.6238,1.2208l-0.3393-1.3279
		c-0.1027-0.3994-0.1936-0.7382-0.2738-1.0394c-0.1525-0.571-0.2689-1.0076-0.3578-1.4496
		c-0.4175-2.0817-0.8321-4.1644-1.2457-6.2471c-0.9064-4.5575-1.8128-9.1154-2.7623-13.6641
		c-0.2806-1.3528-0.5906-2.6396-1.277-3.5181c-1.7092-2.1868-3.567-4.3243-5.3641-6.3918c-0.7832-0.9015-1.5664-1.803-2.3408-2.7109
		c-0.7686-0.9015-1.5938-1.1333-2.6567-0.7348c-0.3383,1.1308-0.0401,2.1932,0.5485,3.5122
		C643.4781,184.8354,644.0482,186.1222,644.6172,187.4094z"/>
	<path d="M582.1453,402.9647c6.7418,3.6662,13.4749,7.3462,20.2089,11.0256l6.8504,3.7425
		c0.6199,0.3383,1.2379,0.6796,1.8558,1.0213c1.5146,0.837,3.0811,1.7028,4.6436,2.5027c1.8451,0.9455,3.127,0.7514,4.5712-0.6903
		c3.4594-3.4545,6.9159-6.9115,10.3734-10.3685c6.7947-6.7937,13.5884-13.5879,20.4006-20.3635
		c1.0022-0.9964,1.5302-1.9512,1.0491-3.5318c-0.1887-0.0107-0.3774-0.0225-0.5651-0.0342
		c-0.6307-0.0396-1.2565-0.0792-1.8813-0.0797l-5.1265-0.0063c-3.1671-0.0044-6.3781-0.0088-9.6058-0.0088
		c-4.8752,0-9.7896,0.0098-14.6551,0.046c-1.4863,0.0112-3.0762,0.2919-4.4753,0.79c-8.5352,3.0375-17.1954,6.1811-25.5702,9.2206
		l-7.4645,2.708c-0.1711,0.0621-0.3412,0.1276-0.5104,0.1936c-0.2816,0.1085-0.5623,0.2171-0.8488,0.3109
		c-0.5964,0.1956-0.8233,0.5368-0.8986,1.3508C580.3901,401.9507,581.0218,402.3531,582.1453,402.9647z"/>
	<path d="M281.7848,403.0331c0.3422-0.1755,0.6659-0.3412,0.9533-0.5436c0.5779-0.4073,0.8878-1.0276,0.8292-1.6608
		c-0.0567-0.6253-0.4488-1.1489-1.0736-1.4359c-0.3129-0.1432-0.6395-0.2571-0.9651-0.372l-0.3354-0.1193l-7.5661-2.7456
		c-8.3396-3.0282-16.9627-6.1596-25.4617-9.1893c-1.3269-0.4732-2.8336-0.7387-4.2426-0.748
		c-7.4498-0.0504-15.0257-0.044-22.3533-0.0386l-9.599,0.0039c-0.4332,1.433-0.2092,2.3936,0.7529,3.3509
		c11.4108,11.358,21.6356,21.5818,31.259,31.2551c1.0296,1.0355,2.1492,1.2403,3.8642,0.7069
		c0.441-0.1369,0.8644-0.3843,1.3132-0.6454c0.1682-0.0978,0.3354-0.1956,0.5045-0.2875l31.6638-17.2917
		C281.4788,403.1901,281.6323,403.1114,281.7848,403.0331z"/>
	<path d="M473.7113,438.8374c-5.6379,9.1707-11.2759,18.3414-16.9334,27.5003c-0.8331,1.3489-1.2672,2.4689-0.8467,3.7948
		c1.3249,0.3911,2.5931,0.0807,3.9336-0.2474l0.4928-0.1193c17.0526-4.0295,34.1024-8.0707,51.1501-12.1172
		c0.5652-0.1345,1.1215-0.307,1.627-0.4635c0.1301-0.0406,0.2572-0.0797,0.3804-0.1173c0.4967-1.7082-0.1124-2.7706-1.2506-3.9048
		c-6.5776-6.5556-13.2275-13.2578-19.6575-19.7396l-6.6372-6.6866c-0.1075-0.108-0.2131-0.2195-0.3197-0.331
		c-0.2738-0.2894-0.5339-0.5627-0.8223-0.7734c-0.5349-0.3906-1.1821-0.5402-1.8138-0.4249
		c-0.6395,0.1178-1.1929,0.4938-1.5605,1.0585c-0.6258,0.9656-1.2242,1.9497-1.8216,2.9339L473.7113,438.8374z"/>
	<path d="M378.6593,426.6854c-3.9297,3.8725-7.8497,7.7558-11.7697,11.6391c-5.0835,5.0376-10.168,10.0746-15.276,15.0888
		c-1.1352,1.1161-1.4344,2.1629-1.0257,3.6696l0.4449,0.1281c0.5436,0.1584,1.1088,0.3232,1.6808,0.4601
		c1.188,0.2845,2.379,0.5578,3.5699,0.8316c0.9064,0.2078,1.8128,0.416,2.7173,0.6287l44.9236,10.5665
		c1.3484,0.3168,2.7378,0.6429,4.1361,0.2459c0.307-1.2242,0.1075-2.2807-0.6454-3.4844
		c-2.2724-3.6281-4.5125-7.2777-6.7526-10.9263l-6.0613-9.8488c-3.7821-6.1352-7.6923-12.4796-11.4978-18.7457
		c-0.7568-1.2462-1.4833-1.6437-2.4983-1.3826C379.9256,425.7325,379.1981,426.1544,378.6593,426.6854z"/>
	<path d="M528.1614,558.4622c1.0287-1.2531,1.4658-2.4504,1.4608-4.0045c-0.0342-11.075-0.0332-22.1504-0.0322-33.2258
		l-0.001-13.6538c0-0.5207-0.0352-1.0414-0.0724-1.583c-0.0088-0.1369-0.0186-0.2753-0.0273-0.4151
		c-1.4491-0.3495-2.3887-0.155-3.2727,0.6537c-0.5935,0.5427-1.23,1.0428-1.8461,1.5273c-0.6786,0.5329-1.3796,1.0844-2.0025,1.6784
		c-1.0433,0.9949-1.7874,1.9131-2.2753,2.8058c-1.8138,3.3196-3.5923,6.6573-5.371,9.9955c-1.408,2.6415-2.816,5.283-4.2407,7.9157
		c-0.6062,1.1196-0.8869,2.2738-0.883,3.6315c0.0244,9.0138,0.0342,18.027,0.044,27.0403l0.0205,15.7722
		c0.001,0.5104,0.0479,1.0286,0.0939,1.5302c0.0107,0.1144,0.0205,0.2278,0.0303,0.3398c1.4784,0.4757,2.3027-0.0899,3.1915-1.2105
		C517.7861,571.2018,522.7523,565.0529,528.1614,558.4622z"/>
	<path d="M397.1865,582.1202c-0.7108,0.9069-0.8986,1.8153-0.5818,2.8405c1.0756,0.3163,2.1482,0.1481,3.521-0.5485l1.6183-0.8233
		c2.3379-1.1915,4.755-2.4235,7.1858-3.5318c1.2917-0.5886,2.6586-0.9157,3.8515-0.9211
		c13.8357-0.0606,27.5111-0.0601,40.6497,0.0039c1.4256,0.0073,2.8679,0.552,3.8251,1.0076
		c1.4618,0.6937,2.8874,1.5043,4.2661,2.2875c0.615,0.3495,1.23,0.6991,1.849,1.0394c1.1264,0.6185,2.1042,0.9377,3.168,0.4952
		c0.3021-1.168,0.0831-2.1448-0.6982-3.1406c-5.7768-7.3691-11.0177-14.0934-16.0211-20.5571
		c-0.5886-0.7598-1.2339-1.0702-2.2264-1.0702c-0.0039,0-0.0078,0-0.0127,0c-10.2443,0.0245-20.7027,0.025-31.0829-0.0005
		c-0.0039,0-0.0078,0-0.0108,0c-1.0052,0-1.6534,0.306-2.2343,1.0555C408.5856,567.5615,402.888,574.8416,397.1865,582.1202z"/>
	<path d="M351.2255,577.3237c0.9504,1.1914,1.8275,1.5009,3.1583,1.078c0.0088-0.108,0.0186-0.2166,0.0284-0.3246
		c0.041-0.4605,0.0831-0.9225,0.0841-1.3845l-0.002-14.5896c-0.0039-9.4836-0.0068-18.9672,0.0068-28.4512
		c0.002-1.2242-0.2963-2.2836-0.9396-3.3343l-1.4921-2.4244c-2.023-3.2809-4.1155-6.6739-6.0154-10.1055
		c-1.9546-3.5308-4.5545-6.8088-8.1792-10.3162c-1.0951-1.0575-2.0367-1.2946-3.2834-0.8057
		c-0.0088,0.1266-0.0186,0.2527-0.0284,0.3784c-0.0362,0.4737-0.0724,0.9401-0.0724,1.4061l-0.002,13.9799
		c0.001,10.8031,0.001,21.6062-0.0225,32.4093c-0.0029,1.2853,0.3765,2.3213,1.2301,3.3597
		C340.6546,564.2336,345.9669,570.7266,351.2255,577.3237z"/>
	<path d="M462.0736,645.9875c-5.3544-0.484-54.764-0.4254-60.2084,0.0684c0.0137,0.2005,0.0264,0.4029,0.0391,0.6063
		c0.0508,0.8253,0.1037,1.6788,0.2689,2.4865c0.1212,0.592,0.3344,1.1675,0.5593,1.7762c0.1917,0.5192,0.3901,1.0555,0.53,1.6109
		c0.2855,1.1318,0.9123,1.7913,2.1648,2.2768c2.4259,0.9416,4.842,1.9101,7.2572,2.8791c2.687,1.0775,5.3739,2.155,8.0746,3.1949
		c0.968,0.3726,2.1394,0.5858,3.2991,0.6004c5.7836,0.0733,10.9405,0.0709,15.7629-0.0054
		c1.2486-0.0196,2.5843-0.2738,3.7596-0.7153c3.0262-1.1367,6.0779-2.3712,9.0289-3.5645c1.0599-0.4288,2.1189-0.8571,3.1798-1.2824
		c5.0121-2.0093,5.108-2.0475,6.2539-7.2958c0.1398-0.6409,0.0988-1.364,0.0597-2.0631
		C462.0922,646.3684,462.0815,646.1768,462.0736,645.9875z"/>
	<path d="M266.6202,475.5055c0.2474-0.8815,0.3911-1.7092,0.4293-2.4606c0.0851-1.738,0.0851-1.738-1.6759-2.397
		c-0.4654-0.1746-0.9348-0.3403-1.4041-0.5055l-35.2953-12.5817c-1.2183-0.4346-2.4758-0.8839-3.7176-0.4307
		c-0.4038,1.7762-0.3549,1.826,0.7412,2.9495c1.8314,1.8759,3.6873,3.7293,5.5431,5.5822l8.3621,8.3792
		c6.1659,6.1835,12.3319,12.3666,18.5135,18.534c0.9416,0.9387,1.7766,1.3469,2.4229,1.1812
		c0.7998-0.2078,1.2633-1.2858,1.5126-2.1541C263.5872,486.2401,265.1174,480.8765,266.6202,475.5055z"/>
	<path d="M639.1768,457.1054c-0.3911-0.1212-0.7676-0.1721-1.1362-0.1721c-0.8956,0-1.7394,0.3012-2.6165,0.6141l-36.2369,12.9313
		c-2.3036,0.8228-2.3428,0.8844-2.0807,3.2751c0.043,0.4034,0.131,0.8336,0.2689,1.3151l0.8214,2.8855
		c1.3376,4.7071,2.6762,9.4142,4.0441,14.1129c0.221,0.7612,0.6522,1.2794,1.2144,1.4584c0.6013,0.1916,1.3044-0.0025,1.9869-0.5437
		c0.2816-0.2234,0.5378-0.4908,0.8086-0.7739c0.1135-0.1188,0.2278-0.2376,0.3433-0.3535l18.2534-18.2549
		c4.3912-4.3952,8.7825-8.7903,13.1913-13.1689C639.1328,459.3436,639.6765,458.4357,639.1768,457.1054z"/>
	<path d="M311.226,513.475c0.1369,0.7656,0.2875,1.5018,0.6082,2.0944c4.4392,8.1992,9.2362,17.0037,15.0971,27.7081
		c0.7764,1.4193,0.8214,1.5013,2.5589,1.0995c0.4341-4.0373,0.4331-37.0005,0-40.6487c-0.3412-0.0826-0.6805-0.1237-1.0198-0.1237
		c-0.7167,0-1.4315,0.1853-2.1599,0.5573l-1.3953,0.7133c-4.0109,2.05-8.1577,4.1693-12.283,6.1635
		C311.4275,511.6211,311.0197,512.3266,311.226,513.475z"/>
	<path d="M537.3322,542.8199c4.9056-8.9473,9.8014-17.8989,14.6962-26.8516l0.1193-0.2166c0.2268-0.4077,0.44-0.793,0.5612-1.1899
		c0.575-1.8984,0.2239-2.708-1.5664-3.6081c-2.07-1.0413-4.1439-2.0763-6.2168-3.1118c-2.3486-1.1729-4.6973-2.3452-7.0411-3.5269
		c-1.319-0.6649-2.3623-0.7646-3.4242-0.3124v40.1827C536.3827,544.5477,536.4424,544.4456,537.3322,542.8199z"/>
	<path d="M371.1607,521.1956l0.7724-0.4688c1.6642-1.0101,2.0397-2.4025,1.1166-4.137c-0.1555-0.2924-0.352-0.571-0.5593-0.8658
		c-0.5221-0.7431-0.9563-1.453-1.3757-2.1394c-0.9778-1.6002-1.9018-3.1113-3.2091-4.1243
		c-1.2907-1.0008-3.0791-1.497-4.8088-1.9766c-0.7167-0.199-1.4325-0.398-2.1198-0.6302c-0.7353-0.2484-1.5156-0.4434-2.3428-0.6493
		c-0.3618-0.0905-0.7372-0.1843-1.1303-0.2875c-0.2396,0.0865-0.4879,0.1687-0.7402,0.2518
		c-0.6659,0.219-1.3542,0.4454-1.9428,0.7925c-0.9514,0.5608-1.8901,1.1924-2.7985,1.803
		c-0.8458,0.5686-1.7199,1.1563-2.6117,1.6931c-0.9983,0.6013-1.3513,1.2579-1.1822,2.1961l0.0626,0.3578
		c0.1193,0.6923,0.2425,1.408,0.5534,1.9429c1.1782,2.0284,2.3858,4.0392,3.5944,6.05c1.2105,2.0148,2.421,4.03,3.6012,6.0628
		c0.6053,1.0414,1.2203,1.3904,2.1355,1.2066c0.8722-0.1775,1.7825-0.3857,2.4982-0.8023
		C364.1939,525.4246,367.7355,523.2749,371.1607,521.1956z"/>
	<path d="M507.9857,526.6107l0.3031-0.5627c2.1991-4.0906,4.3981-8.1816,6.5591-12.2928c0.2767-0.5265,0.4703-1.101,0.6756-1.7092
		c0.0841-0.2474,0.1672-0.4943,0.2562-0.7382c-0.1516-1.4569-0.1848-1.475-1.4579-2.1712c-0.6561-0.3589-1.322-0.7006-1.9869-1.0423
		c-0.88-0.4522-1.7903-0.9201-2.6674-1.4222c-0.8878-0.5085-1.8285-0.7622-2.8395-0.7622c-0.7206,0-1.4784,0.1286-2.2792,0.3862
		c-2.7681,0.8913-5.0601,1.6759-7.2122,2.4699c-0.8565,0.3158-1.4354,0.6732-1.7199,1.0629
		c-1.8177,2.4792-3.344,4.7315-4.667,6.8856c-0.9035,1.4686-0.5055,2.9759,1.0374,3.9346c1.4911,0.926,2.993,1.8358,4.4959,2.7457
		l1.4168,0.8589c0.5798,0.3525,1.1567,0.7084,1.7336,1.0643c1.363,0.8409,2.772,1.7101,4.1849,2.5076
		c0.9709,0.5475,1.761,0.7202,2.4093,0.5334C506.8799,528.1697,507.4548,527.5982,507.9857,526.6107z"/>
	<path d="M671.1241,293.879c1.4647-1.8597,3.0116-3.7,4.5066-5.48c0.6268-0.7456,1.2535-1.4916,1.8754-2.2401
		c0.2239-0.2689,0.4527-0.5329,0.6825-0.7969c0.5085-0.5847,0.9885-1.1372,1.4061-1.7415c0.4889-0.7065,0.6698-1.4442,0.5241-2.1331
		c-0.1467-0.6967-0.617-1.3063-1.3611-1.7629c-0.835-0.5119-1.6789-1.0091-2.5237-1.5068
		c-0.7969-0.4698-1.5938-0.9397-2.3839-1.4217c-1.1254-0.6864-2.2167-0.7974-3.5093-0.3495
		c-0.2767,2.1028-0.6151,4.227-0.9426,6.2848c-0.6336,3.9747-1.2887,8.0809-1.5165,12.1676
		C669.4932,295.4323,670.2842,294.9448,671.1241,293.879z"/>
	<path d="M192.275,276.3155c-0.8634,0-1.7023,0.2684-2.5374,0.8081c-1.5997,1.034-3.0986,1.9091-4.5839,2.6757
		c-1.323,0.6825-1.2956,1.5376-1.1606,2.1213c0.2278,0.9812,0.5759,1.782,1.0061,2.3154c1.3005,1.6124,2.6606,3.2257,3.9757,4.7858
		c1.3337,1.5821,2.6664,3.1642,3.9659,4.7741c0.9074,1.1235,1.7561,1.433,2.9588,1.0536
		c0.1564-2.9514-1.5918-15.6207-2.5462-18.3986C192.9888,276.3605,192.6299,276.3155,192.275,276.3155z"/>
	<path d="M398.5662,616.6602c-1.5449,1.5165-1.8109,2.9666-0.9191,5.0068c0.5427,1.2437,1.1548,1.6774,2.1805,1.5859
		c0.2259-0.065,0.4557-0.1232,0.6854-0.1808c0.5153-0.1296,1.0013-0.2523,1.4364-0.4572c1.76-0.8292,3.6403-1.7708,5.7494-2.8796
		c0.8057-0.4234,1.2838-1.0237,1.3474-1.6901c0.0665-0.6874-0.309-1.3948-1.055-1.9918c-0.8262-0.6609-1.7229-1.3176-2.6645-1.9517
		c-0.6942-0.4664-1.3787-0.6996-2.0514-0.6996c-0.8497,0-1.6789,0.3715-2.4807,1.1147
		C400.0387,615.2175,399.3024,615.9381,398.5662,616.6602z"/>
	<path d="M459.2429,613.3176c-0.2308-0.0005-0.4195-0.0142-0.575-0.0259c-0.0792-0.0059-0.174-0.0128-0.2298-0.0128
		c-0.0147,0-0.0264,0.0005-0.0352,0.0015c-0.3549,0.2592-0.7989,0.5491-1.2428,0.84c-1.3621,0.8907-2.7701,1.8123-4.0031,2.8708
		c-0.1662,0.1432-0.2415,0.5285-0.1907,0.9817c0.0753,0.6737,0.3853,1.231,0.6307,1.3611l0.8057,0.4283
		c2.1472,1.142,4.3678,2.3232,6.6314,3.2541c1.6544,0.6801,2.5921,0.2752,3.3509-1.4393c0.53-1.1978,0.9768-2.8175,0.0948-3.7298
		c-0.4928-0.5094-0.9357-1.0873-1.364-1.6461C462.0169,614.7682,460.9795,613.4149,459.2429,613.3176z"/>
</g>
</svg>
